<svg width="20" height="20" viewBox="0 0 109 40" fill="none" xmlns="http://www.w3.org/2000/svg">
<path fill-rule="evenodd" clip-rule="evenodd" d="M2.40823 12.1294C14.0211 -12.7308 55.0104 5.33367 41.419 31.0541C36.3867 40.0003 18.5803 41.5487 9.63403 38.71C-1.20468 35.2691 -1.7208 20.9896 2.40823 12.1294ZM76.4728 8.98958C82.8599 8.98958 87.1393 13.7531 87.2242 20.6509L87.2255 20.8605C87.2255 21.5917 86.6234 22.1939 85.8922 22.1939H71.9137C71.5696 22.1939 71.3545 22.495 71.4406 22.839C72.0427 25.2046 74.1502 27.0541 77.4621 27.0541C78.6909 27.0541 80.2319 26.703 81.5277 26.0379L81.7201 25.9358C82.5803 25.4627 83.6556 25.7208 84.2148 26.538L84.6019 27.1401C85.247 28.0864 84.9459 29.3337 83.9567 29.9358C81.9352 31.0971 79.3545 31.6993 76.8169 31.6993C70.2793 31.7423 65.376 27.2692 65.376 20.3444C65.376 14.0648 69.9782 8.98958 76.4728 8.98958ZM63.7415 13.6347V10.1078C63.7415 9.50569 63.1394 9.03257 62.5372 9.11859C60.6447 9.41967 58.8383 10.4519 57.548 11.7422C57.3329 11.9573 56.9028 11.7853 56.9028 11.4412V9.93579C56.9028 9.72074 56.7308 9.5487 56.5157 9.5487H52.2146C51.6985 9.5487 51.2684 9.97881 51.2684 10.4949V29.3336C51.2684 30.3659 52.0856 31.1831 53.1179 31.2691H54.6232C55.8705 31.2691 56.9028 30.2369 56.9028 28.9465V17.8928C56.9028 17.1616 57.2469 16.4304 57.806 16.0003C59.0103 15.0541 60.7738 14.4519 62.1931 14.4519H62.9673C63.3974 14.4519 63.7415 14.0648 63.7415 13.6347ZM93.0319 9.54869C93.376 9.54869 93.72 9.72074 93.8921 10.0218L98.0211 16.2154L102.107 10.0648C102.322 9.76375 102.623 9.5917 102.967 9.5917H106.709C107.57 9.5917 108.043 10.5379 107.57 11.2261L101.548 20.1293L108.043 29.5917C108.516 30.2799 108.043 31.2691 107.182 31.2691H103.44C103.139 31.1831 102.838 31.0111 102.623 30.71L98.0641 23.8713L93.462 30.71C93.2469 31.0111 92.9459 31.1831 92.6018 31.1831H88.9028C88.0426 31.1831 87.5695 30.2369 88.0426 29.5057L94.5373 20.0433L88.4297 11.1831C87.9566 10.4949 88.4297 9.54869 89.2899 9.54869H93.0319ZM71.7845 16.3014C72.5587 14.839 74.0211 13.6347 76.4727 13.6347C79.0533 13.6347 80.5157 14.882 81.2469 16.3014C81.677 17.2046 81.0318 18.2369 80.0426 18.2369H72.9888C71.9996 18.2369 71.3114 17.2046 71.7845 16.3014Z" fill="#213A6A"/>
<path d="M19.9146 9.55794C20.4425 9.26476 21.038 9.11816 21.6335 9.11816C22.2357 9.11816 22.8809 9.29021 23.44 9.59128L30.7948 14.4085L30.8743 14.4618C31.7551 15.0841 31.9807 16.328 31.354 17.2472C30.7088 18.1934 29.4615 18.4515 28.5153 17.8493L21.5905 13.3332L14.9239 17.3332V27.4838L14.9218 27.5764C14.8735 28.6515 13.9896 29.5053 12.9024 29.5053C11.7841 29.5053 10.8809 28.602 10.8809 27.4838V16.9891L10.883 16.8689C10.9243 15.708 11.5619 14.602 12.6013 13.9784L19.7841 9.63429L19.9146 9.55794Z" fill="white"/>
<path d="M33.2465 22.7955C33.8056 22.7525 34.3218 22.9246 34.7089 23.2687C35.096 23.6127 35.397 24.1289 35.44 24.645C35.4802 25.1267 35.333 25.6459 35.0334 26.0277L34.9053 26.182C34.4923 26.65 32.0918 29.0321 28.0422 29.0321C24.195 29.0321 21.8363 26.8822 21.2559 26.295L21.1175 26.1504C20.7734 25.7633 20.6013 25.2041 20.6013 24.688C20.6443 24.1289 20.9024 23.6558 21.2895 23.3117C21.6766 22.9676 22.1497 22.7955 22.6228 22.7955C23.182 22.7955 23.7411 23.0106 24.1712 23.4837C24.1721 23.4846 24.1735 23.486 24.1755 23.488C24.2703 23.5852 25.6401 24.9891 28.0422 24.9891C30.2806 24.9891 31.5868 23.77 31.8298 23.5252L31.9407 23.408C32.2777 23.0632 32.7246 22.8357 33.2465 22.7955Z" fill="white"/>
</svg>
